<svg width="20" height="25" viewBox="0 0 20 25" fill="none" xmlns="http://www.w3.org/2000/svg">
<path fill-rule="evenodd" clip-rule="evenodd" d="M0.393491 3.57396C-0.0758289 3.97418 -0.133526 4.68106 0.264616 5.15283C0.662759 5.6246 1.36599 5.6826 1.83529 5.28238C2.51495 4.70279 3.25538 4.19438 4.04556 3.76704C5.79345 2.82179 7.7364 2.29926 9.72005 2.24083C11.7055 2.29997 13.6499 2.82485 15.3978 3.77371C16.1825 4.1996 16.9177 4.70558 17.5927 5.28193C18.0618 5.68244 18.765 5.62487 19.1635 5.15334C19.562 4.68182 19.5046 3.9749 19.0355 3.57439C18.2424 2.89724 17.3787 2.30277 16.4569 1.8024C14.3927 0.681943 12.0956 0.0646976 9.75061 0.000416719C9.73048 -0.00013531 9.71033 -0.000138877 9.69022 0.000405982C7.34795 0.0638391 5.05306 0.678156 2.98962 1.79408C2.06148 2.29603 1.19179 2.89317 0.393491 3.57396ZM4.7032 7.07848C4.20133 7.43658 4.08324 8.13583 4.43946 8.64033C4.79569 9.14484 5.49132 9.26353 5.9932 8.90545C7.16898 8.06654 8.45149 7.60742 9.74311 7.53478C11.0378 7.60375 12.3239 8.06102 13.5031 8.9C14.0055 9.2574 14.701 9.13778 15.0565 8.6328C15.4121 8.12782 15.293 7.42871 14.7907 7.07131C13.2748 5.99281 11.563 5.37431 9.79158 5.29412C9.75708 5.29256 9.72253 5.29261 9.68803 5.29428C7.92103 5.37952 6.21433 6.00032 4.7032 7.07848ZM13.8158 15.0749C13.1661 15.0749 12.6394 15.6043 12.6394 16.2574V20.8628C12.6394 21.5159 13.1661 22.0453 13.8158 22.0453H15.3429C15.9926 22.0453 16.5193 21.5159 16.5193 20.8628V20.4479H15.3429C14.7275 20.4479 14.2285 19.9464 14.2285 19.3277C14.2285 18.709 14.7275 18.2075 15.3429 18.2075H17.6337C18.249 18.2075 18.7481 18.709 18.7481 19.3277V20.8628C18.7481 22.7531 17.2234 24.2857 15.3429 24.2857H13.8158C11.9352 24.2857 10.4107 22.7531 10.4107 20.8628V16.2574C10.4107 14.367 11.9352 12.8345 13.8158 12.8345H15.3429C16.8273 12.8345 18.0871 13.7886 18.5539 15.1166C18.7591 15.6998 18.455 16.3398 17.8746 16.546C17.2944 16.7522 16.6577 16.4464 16.4527 15.8631C16.2906 15.4023 15.8534 15.0749 15.3429 15.0749H13.8158ZM7.58388 15.0805H3.56763L3.28237 16.801C3.67072 16.7179 4.06792 16.6756 4.46762 16.6756H5.67609C7.55591 16.6756 9.07981 18.2075 9.07981 20.0971V20.8642C9.07981 22.7538 7.55591 24.2857 5.67609 24.2857H4.14985C2.66611 24.2857 1.40682 23.332 0.940104 22.0047C0.735006 21.4213 1.03915 20.7812 1.61941 20.5751C2.19968 20.369 2.83635 20.6748 3.04145 21.258C3.20328 21.7182 3.64 22.0453 4.14985 22.0453H5.67609C6.32502 22.0453 6.85107 21.5164 6.85107 20.8642V20.0971C6.85107 19.4447 6.32502 18.916 5.67609 18.916H4.46762C3.92981 18.916 3.39937 19.0418 2.91834 19.2836L2.35887 19.5648C1.98398 19.7532 1.53561 19.7143 1.19846 19.4639C0.861295 19.2137 0.692392 18.7943 0.761305 18.3787L1.52441 13.7761C1.61397 13.236 2.07887 12.8401 2.62363 12.8401H7.58388C8.19934 12.8401 8.69825 13.3416 8.69825 13.9603C8.69825 14.579 8.19934 15.0805 7.58388 15.0805Z" fill="white"/>
</svg>
