<svg width="25" height="31" viewBox="0 0 25 31" fill="none" xmlns="http://www.w3.org/2000/svg">
<path d="M3.316 9.61627C2.88208 6.75831 4.8972 4.19114 7.97553 3.2506C8.52181 3.08471 9.11075 3.13278 9.6229 3.38506C10.1351 3.63734 10.5321 4.07495 10.7335 4.60916L11.7218 7.24448C11.8809 7.66844 11.9096 8.13026 11.8044 8.57068C11.6991 9.0111 11.4647 9.41001 11.1311 9.71623L8.19135 12.4084C8.04626 12.5412 7.93816 12.7094 7.87763 12.8966C7.81709 13.0838 7.80621 13.2835 7.84603 13.4761L7.87329 13.5943L7.94372 13.8896C8.31023 15.3243 8.86724 16.7034 9.59989 17.9902C10.3998 19.3566 11.3913 20.6013 12.5442 21.6865L12.6351 21.7683C12.7818 21.8986 12.9598 21.9886 13.1517 22.0296C13.3436 22.0706 13.5429 22.0612 13.7301 22.0023L17.5309 20.805C17.9628 20.6694 18.4254 20.666 18.8593 20.7951C19.2933 20.9242 19.6787 21.18 19.9663 21.5298L21.7655 23.713C22.5153 24.6217 22.4244 25.9576 21.5634 26.7595C19.2075 28.9564 15.9678 29.4062 13.7142 27.5956C10.9505 25.3684 8.62153 22.6505 6.84416 19.5783C5.04939 16.5101 3.85377 13.1299 3.316 9.61627ZM10.2269 13.6261L12.6623 11.3906C13.3299 10.7784 13.7992 9.98068 14.0101 9.09983C14.221 8.21898 14.1638 7.29519 13.8459 6.44707L12.86 3.81174C12.4555 2.73665 11.6569 1.85584 10.6265 1.34822C9.59606 0.840603 8.41105 0.744249 7.31215 1.07873C3.48866 2.24872 0.419414 5.67692 1.06916 9.95932C1.52352 12.9491 2.57084 16.7521 4.88129 20.7233C6.79898 24.0359 9.31124 26.9663 12.292 29.3676C15.6725 32.0824 20.1844 31.1555 23.115 28.4248C23.9536 27.644 24.4626 26.5726 24.5382 25.4293C24.6137 24.2861 24.2502 23.157 23.5217 22.2726L21.7224 20.0871C21.1468 19.3885 20.3756 18.8777 19.5078 18.6203C18.64 18.3629 17.715 18.3705 16.8516 18.6423L13.696 19.6351C12.8812 18.7951 12.1675 17.8626 11.5696 16.8566C10.9926 15.8393 10.5424 14.7551 10.2292 13.6283" fill="white"/>
</svg>
