<svg width="25" height="35" viewBox="0 0 25 35" fill="none" xmlns="http://www.w3.org/2000/svg">
<path d="M1 1H19.0714C20.3786 1 21.6322 1.51926 22.5565 2.44355C23.4807 3.36783 24 4.62143 24 5.92857V28.9286C24 29.3643 23.8269 29.7822 23.5188 30.0902C23.2107 30.3983 22.7929 30.5714 22.3571 30.5714H17.4286" stroke="#737373" stroke-width="2" stroke-linecap="round" stroke-linejoin="round"/>
<path d="M12.5 17.4286V20.7143M1 1L13.466 3.49386C14.5831 3.71715 15.5884 4.32055 16.3109 5.20143C17.0333 6.08231 17.4283 7.18626 17.4286 8.3255V31.8529C17.4284 32.0958 17.3744 32.3357 17.2704 32.5553C17.1663 32.7749 17.0149 32.9686 16.827 33.1226C16.639 33.2766 16.4193 33.387 16.1835 33.4458C15.9478 33.5047 15.702 33.5105 15.4637 33.4629L3.64171 31.1004C2.89659 30.9515 2.22611 30.5489 1.74444 29.9612C1.26278 29.3735 0.999699 28.637 1 27.8771V1Z" stroke="#737373" stroke-width="2" stroke-linecap="round" stroke-linejoin="round"/>
</svg>
