<svg width="30" height="29" viewBox="0 0 30 29" fill="none" xmlns="http://www.w3.org/2000/svg">
<path d="M28.8715 17.2356C28.5359 15.982 27.9115 14.8245 27.0481 13.8556C26.1848 12.8867 25.1066 12.1335 23.8999 11.6561C22.6932 11.1788 21.3914 10.9907 20.0989 11.1068C18.8065 11.2229 17.5591 11.64 16.4568 12.3248L18.7272 3.25966C18.7836 3.03444 18.7677 2.79721 18.682 2.58147C18.5962 2.36572 18.4449 2.18236 18.2493 2.05725C17.3068 1.46208 16.2541 1.06259 15.154 0.882554C14.0539 0.702518 12.9288 0.745614 11.8457 1.00928C10.7626 1.27294 9.74363 1.75179 8.84937 2.41732C7.95511 3.08285 7.20386 3.92147 6.64033 4.88327C6.0768 5.84508 5.7125 6.91041 5.56911 8.01588C5.42572 9.12136 5.50617 10.2444 5.80567 11.3181C6.10517 12.3919 6.61761 13.3944 7.31248 14.2661C8.00735 15.1377 8.87047 15.8607 9.85046 16.392L0.864256 18.9588C0.641008 19.0224 0.44336 19.1545 0.299203 19.3364C0.155045 19.5184 0.0716568 19.741 0.0608034 19.9729C-0.0244856 21.865 0.539046 23.7295 1.65808 25.2577C2.77712 26.7858 4.38453 27.886 6.21414 28.3759C6.91982 28.5654 7.64725 28.6618 8.37792 28.6626C9.49134 28.6597 10.5928 28.4333 11.6172 27.9969C12.6415 27.5606 13.5679 26.9231 14.3414 26.1222C15.1149 25.3213 15.7198 24.3733 16.1203 23.3344C16.5207 22.2955 16.7087 21.1868 16.6729 20.074L23.3886 26.5736C23.5556 26.7352 23.7692 26.8402 23.9992 26.8738C24.2291 26.9073 24.4638 26.8678 24.67 26.7606C26.3504 25.8888 27.6828 24.4694 28.4468 22.7374C29.2108 21.0053 29.3606 19.0644 28.8715 17.2356ZM12.1098 16.2659C12.1098 15.8275 12.2398 15.399 12.4834 15.0345C12.7269 14.67 13.0731 14.3859 13.4781 14.2182C13.8831 14.0504 14.3287 14.0065 14.7586 14.0921C15.1886 14.1776 15.5835 14.3887 15.8935 14.6986C16.2035 15.0086 16.4146 15.4036 16.5001 15.8335C16.5856 16.2634 16.5417 16.7091 16.374 17.1141C16.2062 17.5191 15.9221 17.8652 15.5576 18.1088C15.1931 18.3523 14.7646 18.4823 14.3262 18.4823C13.7384 18.4823 13.1747 18.2488 12.759 17.8331C12.3433 17.4175 12.1098 16.8537 12.1098 16.2659ZM7.67698 9.06253C7.67663 8.03548 7.93581 7.02501 8.43045 6.12492C8.92509 5.22484 9.63915 4.46434 10.5063 3.91405C11.3735 3.36376 12.3657 3.04151 13.3907 2.97724C14.4157 2.91297 15.4404 3.10875 16.3695 3.54641L14.2944 11.8331C13.5004 11.839 12.7225 12.0581 12.0422 12.4675C11.3618 12.8769 10.8039 13.4615 10.4267 14.1603C9.5802 13.6067 8.88532 12.8505 8.40513 11.9603C7.92494 11.07 7.67466 10.074 7.67698 9.06253ZM11.4172 25.6261C10.528 26.1399 9.5233 26.4207 8.49652 26.4424C7.46974 26.4641 6.45413 26.226 5.54398 25.7502C4.63384 25.2744 3.85868 24.5763 3.29047 23.7208C2.72227 22.8653 2.37945 21.8801 2.29385 20.8567L10.5098 18.51C10.9005 19.1754 11.458 19.7274 12.1274 20.1112C12.7967 20.4951 13.5546 20.6976 14.3262 20.6987H14.4523C14.3965 21.7078 14.0897 22.6869 13.5597 23.5474C13.0297 24.4079 12.2933 25.1224 11.4172 25.6261ZM26.1245 22.44C25.6762 23.2179 25.0612 23.8868 24.3237 24.3988L18.1842 18.4574C18.5771 17.7673 18.7768 16.9842 18.7624 16.1903C18.7481 15.3963 18.5201 14.621 18.1025 13.9456C19.2746 13.3538 20.6066 13.1565 21.9 13.3828C23.1934 13.6092 24.3791 14.2471 25.2807 15.2018C26.1822 16.1564 26.7514 17.3767 26.9034 18.6809C27.0555 19.9851 26.7823 21.3036 26.1245 22.44Z" fill="white"/>
</svg>
