<svg width="31" height="32" viewBox="0 0 31 32" fill="none" xmlns="http://www.w3.org/2000/svg">
<path d="M5.91262 30.262C8.32315 30.262 10.2773 28.2831 10.2773 25.8419C10.2773 23.4009 8.32315 21.4219 5.91262 21.4219C3.50209 21.4219 1.54797 23.4009 1.54797 25.8419C1.54797 28.2831 3.50209 30.262 5.91262 30.262Z" stroke="white" stroke-width="2" stroke-linecap="round" stroke-linejoin="round"/>
<path d="M25.5556 24.7385C27.9662 24.7385 29.9202 22.7597 29.9202 20.3185C29.9202 17.8774 27.9662 15.8984 25.5556 15.8984C23.145 15.8984 21.1909 17.8774 21.1909 20.3185C21.1909 22.7597 23.145 24.7385 25.5556 24.7385Z" stroke="white" stroke-width="2" stroke-linecap="round" stroke-linejoin="round"/>
<path d="M29.9176 20.3161V2.98945C29.9167 2.82036 29.8774 2.65375 29.8028 2.50244C29.7284 2.35113 29.6206 2.21915 29.4877 2.11668C29.355 2.0142 29.2007 1.94396 29.0368 1.91136C28.8729 1.87876 28.704 1.88467 28.5427 1.92863L11.0841 6.83491C10.8534 6.89783 10.6495 7.03567 10.5036 7.2273C10.3577 7.41896 10.278 7.65377 10.2767 7.89573V25.8413" stroke="white" stroke-width="2" stroke-linecap="round" stroke-linejoin="round"/>
<path d="M10.277 13.6852L29.9179 8.16016" stroke="white" stroke-width="2" stroke-linecap="round" stroke-linejoin="round"/>
</svg>
