<svg width="29" height="28" viewBox="0 0 29 28" fill="none" xmlns="http://www.w3.org/2000/svg">
<path d="M26.1082 11.0664C26.4062 10.9422 26.5987 10.887 26.7759 10.71C26.9529 10.533 27.0524 10.293 27.0524 10.0428C27.0524 9.79252 26.9529 9.55251 26.7759 9.37555C26.5987 9.19859 26.539 9.09258 26.1082 8.9662C25.6772 8.83983 4.7289 1.758 4.7289 1.758C4.39459 1.64363 4.0349 1.62527 3.69068 1.70499C3.34647 1.78472 3.03153 1.95933 2.78168 2.209C2.53183 2.45866 2.35708 2.77336 2.27729 3.11731C2.19751 3.46127 2.21588 3.82068 2.33034 4.15474C2.33034 4.15474 9.57964 25.2498 9.66821 25.5367C9.75677 25.8235 9.87102 26.0268 10.0481 26.2039C10.2252 26.3809 10.4654 26.4802 10.7158 26.4802C10.9663 26.4802 11.2065 26.3809 11.3836 26.2039C11.5606 26.0268 11.6011 25.9266 11.7339 25.5367C11.8667 25.1467 15.4374 14.8551 15.4374 14.8551C15.4374 14.8551 25.8101 11.1907 26.1082 11.0664Z" stroke="white" stroke-width="3" stroke-linecap="round" stroke-linejoin="round"/>
</svg>
