<svg width="30" height="30" viewBox="0 0 30 30" fill="none" xmlns="http://www.w3.org/2000/svg">
<path d="M15 27.8571C16.6884 27.8571 18.3603 27.5246 19.9202 26.8784C21.4801 26.2323 22.8975 25.2853 24.0914 24.0914C25.2853 22.8975 26.2323 21.4801 26.8785 19.9202C27.5246 18.3603 27.8571 16.6884 27.8571 15C27.8571 13.3116 27.5246 11.6397 26.8785 10.0798C26.2323 8.51988 25.2853 7.10252 24.0914 5.90863C22.8975 4.71473 21.4801 3.76768 19.9202 3.12155C18.3603 2.47542 16.6884 2.14286 15 2.14286C11.5901 2.14286 8.31981 3.49744 5.90863 5.90863C3.49744 8.31981 2.14286 11.5901 2.14286 15C2.14286 18.4099 3.49744 21.6802 5.90863 24.0914C8.31981 26.5026 11.5901 27.8571 15 27.8571ZM15 30C11.0218 30 7.20644 28.4196 4.3934 25.6066C1.58035 22.7936 0 18.9782 0 15C0 11.0218 1.58035 7.20644 4.3934 4.3934C7.20644 1.58035 11.0218 0 15 0C18.9782 0 22.7936 1.58035 25.6066 4.3934C28.4196 7.20644 30 11.0218 30 15C30 18.9782 28.4196 22.7936 25.6066 25.6066C22.7936 28.4196 18.9782 30 15 30Z" fill="#737373"/>
<path d="M4.28516 14.9994C4.28516 12.1578 5.41398 9.43262 7.4233 7.4233C9.43262 5.41398 12.1578 4.28516 14.9994 4.28516C17.841 4.28516 20.5663 5.41398 22.5756 7.4233C24.5849 9.43262 25.7137 12.1578 25.7137 14.9994C25.7137 15.2836 25.6008 15.5561 25.3999 15.7571C25.199 15.958 24.9265 16.0709 24.6423 16.0709C24.3581 16.0709 24.0856 15.958 23.8847 15.7571C23.6838 15.5561 23.5709 15.2836 23.5709 14.9994C23.5709 12.7262 22.6678 10.546 21.0604 8.93853C19.4529 7.33107 17.2727 6.42801 14.9994 6.42801C12.7262 6.42801 10.546 7.33107 8.93853 8.93853C7.33107 10.546 6.42801 12.7262 6.42801 14.9994C6.42801 15.2836 6.31513 15.5561 6.1142 15.7571C5.91327 15.958 5.64075 16.0709 5.35658 16.0709C5.07242 16.0709 4.7999 15.958 4.59897 15.7571C4.39804 15.5561 4.28516 15.2836 4.28516 14.9994Z" fill="#737373"/>
<path d="M16.9576 18.8825C17.5588 19.3444 17.9775 20.004 18.1395 20.7447C18.3015 21.4854 18.1965 22.2595 17.8429 22.9303C17.4894 23.601 16.9101 24.1252 16.2075 24.4102C15.5049 24.6951 14.7241 24.7226 14.0033 24.4876C13.2824 24.2526 12.6678 23.7703 12.2681 23.126C11.8684 22.4817 11.7093 21.7169 11.819 20.9666C11.9286 20.2164 12.3 19.5291 12.8674 19.0262C13.4348 18.5232 14.1617 18.2371 14.9197 18.2183L16.9618 11.9311C17.0042 11.7959 17.0729 11.6704 17.164 11.5619C17.2551 11.4535 17.3669 11.3641 17.4928 11.2991C17.6187 11.2341 17.7562 11.1947 17.8974 11.1832C18.0386 11.1717 18.1807 11.1883 18.3155 11.2321C18.4502 11.2759 18.5749 11.346 18.6824 11.4383C18.7899 11.5306 18.878 11.6433 18.9416 11.7699C19.0053 11.8965 19.0432 12.0344 19.0531 12.1758C19.0631 12.3171 19.0449 12.459 18.9997 12.5933L16.9576 18.8804V18.8825ZM14.669 22.4525C14.8029 22.4962 14.9442 22.513 15.0846 22.502C15.225 22.491 15.362 22.4525 15.4875 22.3887C15.6131 22.3248 15.7248 22.2368 15.8164 22.1297C15.9079 22.0227 15.9775 21.8986 16.0211 21.7647C16.0647 21.6307 16.0816 21.4895 16.0706 21.3491C16.0596 21.2086 16.0211 21.0717 15.9572 20.9462C15.8934 20.8206 15.8054 20.7088 15.6983 20.6173C15.5913 20.5257 15.4672 20.4562 15.3333 20.4125C15.0627 20.3245 14.7683 20.3474 14.5147 20.4764C14.2612 20.6054 14.0692 20.8299 13.9811 21.1004C13.893 21.3709 13.916 21.6654 14.045 21.9189C14.174 22.1725 14.3985 22.3645 14.669 22.4525Z" fill="#737373"/>
</svg>
