<svg width="31" height="31" viewBox="0 0 31 31" fill="none" xmlns="http://www.w3.org/2000/svg">
<path d="M15.3197 8.48047C11.646 8.48047 8.72583 11.4006 8.72583 15.0743C8.72583 18.748 11.646 21.6682 15.3197 21.6682C18.9934 21.6682 21.9135 18.748 21.9135 15.0743C21.9135 11.4006 18.9934 8.48047 15.3197 8.48047ZM15.3197 19.7842C12.6821 19.7842 10.6098 17.7119 10.6098 15.0743C10.6098 12.4368 12.6821 10.3644 15.3197 10.3644C17.9572 10.3644 20.0296 12.4368 20.0296 15.0743C20.0296 17.7119 17.9572 19.7842 15.3197 19.7842Z" fill="white"/>
<path d="M29.1668 11.9631L26.5292 11.1154L25.964 9.70238L27.2828 7.25324C27.5654 6.68805 27.4712 5.93447 27.0002 5.46348L24.7395 3.20273C24.2685 2.73174 23.5149 2.63754 22.9497 2.92013L20.5006 4.23891L19.0876 3.67372L18.2398 1.03618C18.0514 0.470989 17.4862 0 16.8268 0H13.6241C12.9647 0 12.3995 0.470989 12.3053 1.13037L11.4576 3.76792C10.8924 3.86211 10.4214 4.05051 9.95039 4.3331L7.50124 3.01433C6.93606 2.73174 6.18247 2.82594 5.71148 3.29693L3.45073 5.55768C2.97975 6.02867 2.88555 6.78225 3.16814 7.34744L4.39271 9.70238C4.20432 10.1734 4.01592 10.7386 3.82753 11.2095L1.18999 12.0573C0.624798 12.2457 0.153809 12.8109 0.153809 13.4703V16.673C0.153809 17.3324 0.624798 17.8976 1.28418 18.086L3.92172 18.9338L4.48691 20.3467L3.16814 22.7959C2.88555 23.3611 2.97975 24.1147 3.45073 24.5857L5.71148 26.8464C6.18247 27.3174 6.93606 27.4116 7.50124 27.129L9.95039 25.8102L11.3634 26.3754L12.2111 29.1072C12.3995 29.6723 12.9647 30.1433 13.6241 30.1433H16.8268C17.4862 30.1433 18.0514 29.6723 18.2398 29.1072L19.0876 26.3754L20.5006 25.8102L22.9497 27.129C23.5149 27.4116 24.2685 27.3174 24.7395 26.8464L27.0002 24.5857C27.4712 24.1147 27.5654 23.3611 27.2828 22.7959L25.964 20.3467L26.5292 18.9338L29.261 18.086C29.8261 17.8976 30.2971 17.3324 30.2971 16.673V13.4703C30.2971 12.8109 29.8261 12.1515 29.1668 11.9631ZM28.4132 16.3904L25.0221 17.4266L24.9279 17.8976L24.0801 19.8758L23.7975 20.3467L25.493 23.4553L23.6091 25.3392L20.5006 23.6437L20.0296 23.9263C19.3702 24.3031 18.7108 24.5856 18.0514 24.774L17.5804 24.8682L16.5442 28.2594H13.9067L12.8705 24.8682L12.3995 24.774L10.4214 23.9263L9.95039 23.6437L6.84186 25.3392L4.9579 23.4553L6.65346 20.3467L6.37087 19.8758C5.99408 19.2164 5.71148 18.557 5.52309 17.8976L5.42889 17.4266L2.03777 16.3904V13.7529L5.24049 12.8109L5.42889 12.3399C5.61729 11.5863 5.89988 10.927 6.27667 10.2676L6.55927 9.79658L4.9579 6.68805L6.84186 4.80409L9.85619 6.49965L10.3272 6.21706C10.9866 5.84027 11.646 5.55768 12.3995 5.36928L12.8705 5.18088L13.9067 1.88396H16.5442L17.5804 5.18088L18.0514 5.36928C18.7108 5.55768 19.3702 5.84027 20.0296 6.21706L20.5006 6.49965L23.6091 4.80409L25.493 6.68805L23.7975 9.79658L24.0801 10.2676C24.4569 10.927 24.7395 11.5863 24.9279 12.2457L25.0221 12.7167L28.4132 13.7529V16.3904Z" fill="white"/>
</svg>
