<svg width="30" height="30" viewBox="0 0 30 30" fill="none" xmlns="http://www.w3.org/2000/svg">
<path d="M15 23.75C14.6939 23.75 14.3984 23.8624 14.1696 24.0659C13.9408 24.2693 13.7946 24.5497 13.7588 24.8537L13.75 25V26.25C13.7504 26.5686 13.8724 26.875 14.0911 27.1067C14.3098 27.3384 14.6087 27.4778 14.9268 27.4965C15.2448 27.5151 15.558 27.4117 15.8023 27.2072C16.0466 27.0027 16.2037 26.7126 16.2413 26.3963L16.25 26.25V25C16.25 24.6685 16.1183 24.3505 15.8839 24.1161C15.6495 23.8817 15.3316 23.75 15 23.75ZM7.10879 21.1375L6.99129 21.2412L6.11629 22.1163C5.89211 22.3412 5.76195 22.643 5.75226 22.9605C5.74257 23.2779 5.85406 23.5871 6.0641 23.8253C6.27415 24.0636 6.56698 24.2129 6.88314 24.243C7.19929 24.2731 7.51505 24.1818 7.76629 23.9875L7.88379 23.8838L8.75879 23.0087C8.9745 22.7934 9.1041 22.5067 9.12322 22.2025C9.14234 21.8983 9.04966 21.5976 8.86261 21.357C8.67556 21.1163 8.40703 20.9523 8.10753 20.8958C7.80803 20.8393 7.49819 20.8941 7.23629 21.05L7.10879 21.1375ZM21.2413 21.2412C21.0261 21.4565 20.8968 21.7429 20.8777 22.0466C20.8586 22.3504 20.951 22.6507 21.1375 22.8913L21.2413 23.0087L22.1163 23.8838C22.3412 24.1079 22.6431 24.2381 22.9605 24.2478C23.278 24.2575 23.5872 24.146 23.8254 23.9359C24.0636 23.7259 24.2129 23.4331 24.243 23.1169C24.2732 22.8008 24.1818 22.485 23.9875 22.2338L23.8838 22.1163L23.0088 21.2412C22.7744 21.0069 22.4565 20.8753 22.125 20.8753C21.7936 20.8753 21.4757 21.0069 21.2413 21.2412ZM25 13.75C24.6814 13.7504 24.375 13.8723 24.1433 14.0911C23.9117 14.3098 23.7722 14.6087 23.7536 14.9267C23.7349 15.2448 23.8384 15.558 24.0429 15.8023C24.2474 16.0466 24.5374 16.2036 24.8538 16.2413L25 16.25H26.25C26.5686 16.2496 26.8751 16.1277 27.1068 15.9089C27.3384 15.6902 27.4778 15.3913 27.4965 15.0733C27.5152 14.7552 27.4117 14.442 27.2072 14.1977C27.0027 13.9534 26.7127 13.7964 26.3963 13.7587L26.25 13.75H25ZM3.75004 13.75C3.43144 13.7504 3.125 13.8723 2.89333 14.0911C2.66166 14.3098 2.52225 14.6087 2.50358 14.9267C2.48491 15.2448 2.58838 15.558 2.79287 15.8023C2.99736 16.0466 3.28742 16.2036 3.60379 16.2413L3.75004 16.25H5.00004C5.31864 16.2496 5.62508 16.1277 5.85675 15.9089C6.08842 15.6902 6.22783 15.3913 6.24651 15.0733C6.26518 14.7552 6.1617 14.442 5.95721 14.1977C5.75272 13.9534 5.46266 13.7964 5.14629 13.7587L5.00004 13.75H3.75004ZM22.2338 6.0125L22.1163 6.11625L21.2413 6.99125C21.0171 7.2162 20.8869 7.51804 20.8773 7.83548C20.8676 8.15292 20.9791 8.46214 21.1891 8.70035C21.3991 8.93855 21.692 9.08788 22.0081 9.118C22.3243 9.14812 22.6401 9.05677 22.8913 8.8625L23.0088 8.75875L23.8838 7.88375C24.0987 7.66835 24.2276 7.38197 24.2465 7.07829C24.2653 6.77461 24.1727 6.47449 23.9861 6.23419C23.7995 5.99389 23.5316 5.82991 23.2327 5.77299C22.9338 5.71607 22.6244 5.77012 22.3625 5.925L22.2338 6.0125ZM6.11629 6.11625C5.90107 6.33149 5.77178 6.61787 5.75268 6.92165C5.73358 7.22543 5.82598 7.52574 6.01254 7.76625L6.11629 7.88375L6.99129 8.75875C7.21624 8.98293 7.51808 9.11309 7.83552 9.12279C8.15296 9.13248 8.46218 9.02098 8.70039 8.81094C8.9386 8.6009 9.08792 8.30806 9.11804 7.99191C9.14816 7.67575 9.05681 7.35999 8.86254 7.10875L8.75879 6.99125L7.88379 6.11625C7.64938 5.88191 7.3315 5.75027 7.00004 5.75027C6.66859 5.75027 6.3507 5.88191 6.11629 6.11625ZM15 2.5C14.6939 2.50004 14.3984 2.61245 14.1696 2.81589C13.9408 3.01934 13.7946 3.29969 13.7588 3.60375L13.75 3.75V5C13.7504 5.3186 13.8724 5.62504 14.0911 5.85671C14.3098 6.08838 14.6087 6.22779 14.9268 6.24646C15.2448 6.26514 15.558 6.16166 15.8023 5.95717C16.0466 5.75268 16.2037 5.46262 16.2413 5.14625L16.25 5V3.75C16.25 3.41848 16.1183 3.10054 15.8839 2.86612C15.6495 2.6317 15.3316 2.5 15 2.5ZM15 8.75C13.7754 8.74993 12.5778 9.10961 11.5559 9.78437C10.534 10.4591 9.73277 11.4192 9.25184 12.5455C8.77091 13.6717 8.63142 14.9143 8.8507 16.1191C9.06997 17.3239 9.63836 18.4378 10.4853 19.3223C11.3322 20.2069 12.4202 20.8231 13.6144 21.0945C14.8085 21.366 16.0561 21.2806 17.2021 20.8491C18.3482 20.4175 19.3422 19.6588 20.0607 18.6672C20.7793 17.6756 21.1906 16.4947 21.2438 15.2712L21.25 15L21.2438 14.7288C21.1739 13.1197 20.4855 11.5997 19.3223 10.4858C18.159 9.37193 16.6106 8.75009 15 8.75Z" fill="#F5EF54"/>
</svg>
