<svg width="48" height="48" viewBox="0 0 48 48" fill="none" xmlns="http://www.w3.org/2000/svg">
<path fill-rule="evenodd" clip-rule="evenodd" d="M39 24C39 32.2843 32.2843 39 24 39C15.7157 39 9 32.2843 9 24C9 15.7157 15.7157 9 24 9C32.2843 9 39 15.7157 39 24ZM11.8972 26.0466C18.5166 26.1372 21.5814 31.5185 21.9223 36.0976C16.7988 35.2239 12.758 31.1745 11.8972 26.0466ZM11.8022 22.6364H14.7955C15.9695 22.6364 16.9541 22.2573 18.0755 21.8255C19.559 21.2543 21.2819 20.5909 24 20.5909C26.7181 20.5909 28.441 21.2543 29.9245 21.8255C31.0459 22.2573 32.0305 22.6364 33.2045 22.6364H36.1978C35.5195 16.5001 30.3171 11.7273 24 11.7273C17.6829 11.7273 12.4805 16.5001 11.8022 22.6364ZM26.0777 36.0976C26.4186 31.5185 29.4834 26.1372 36.1028 26.0466C35.242 31.1745 31.2012 35.2239 26.0777 36.0976Z" fill="white"/>
</svg>
