<svg width="39" height="27" viewBox="0 0 39 27" fill="none" xmlns="http://www.w3.org/2000/svg">
<path fill-rule="evenodd" clip-rule="evenodd" d="M34.9842 26.8717H34.1732C32.8294 26.8717 31.74 25.8363 31.74 24.559H10.4086C9.44904 24.559 8.5529 25.1438 7.65974 25.7267C7.01062 26.1503 6.36309 26.5729 5.69395 26.7692C5.46684 26.8359 5.22553 26.8717 4.97541 26.8717H4.16436C2.82057 26.8717 1.73121 25.8363 1.73121 24.559V14.1401C1.73121 12.9133 2.24391 11.7368 3.15652 10.8693L4.16436 9.9113H2.52037C1.6366 9.9113 0.920166 9.2303 0.920166 8.39025C0.920166 7.92494 1.25333 7.51935 1.72823 7.40649L3.15661 7.06706C3.6685 6.94542 4.16436 7.31343 4.16436 7.81497V9.14037H4.97541L6.43059 4.06866C7.00799 2.05625 8.93095 0.660156 11.1254 0.660156H28.0232C30.2176 0.660156 32.1406 2.05625 32.718 4.06866L34.1732 9.14037H34.9842V7.81497C34.9842 7.31343 35.4801 6.94542 35.992 7.06706L37.4203 7.40649C37.8953 7.51935 38.2284 7.92494 38.2284 8.39025C38.2284 9.2303 37.512 9.9113 36.6282 9.9113H34.9842L35.9921 10.8693C36.9047 11.7368 37.4174 12.9133 37.4174 14.1401V24.559C37.4174 25.8363 36.328 26.8717 34.9842 26.8717ZM7.17758 4.73588L5.87861 8.85159C5.82636 9.01714 5.92196 9.19219 6.09446 9.24685C7.50094 9.69248 8.9738 9.91967 10.4563 9.91967H28.7684C30.251 9.91967 31.7238 9.69248 33.1303 9.24685C33.3028 9.19219 33.3984 9.01714 33.3461 8.85159L32.0472 4.73588C31.4297 2.77933 29.5351 1.43945 27.3861 1.43945H11.8386C9.68965 1.43945 7.79509 2.77933 7.17758 4.73588ZM33.357 10.9403C32.0031 12.2033 30.8659 13.1778 28.7612 14.0077C28.5551 14.089 28.4738 14.3292 28.5975 14.5057C28.9489 15.0067 29.559 15.2867 30.1903 15.2366L32.4197 15.06C33.4616 14.9775 34.439 14.5466 35.1783 13.8439C35.6877 13.3597 35.7541 12.5966 35.3355 12.0394L34.5852 11.041C34.2954 10.6554 33.7128 10.6084 33.357 10.9403ZM5.64953 10.9404C7.00348 12.2034 8.14066 13.1778 10.2453 14.0078C10.4514 14.0891 10.5328 14.3293 10.409 14.5058C10.0576 15.0068 9.44759 15.2867 8.81629 15.2367L6.58685 15.0601C5.54493 14.9776 4.56751 14.5467 3.8282 13.844C3.31887 13.3598 3.25242 12.5967 3.67109 12.0395L4.42139 11.0411C4.7111 10.6555 5.29378 10.6085 5.64953 10.9404ZM8.21735 19.9403C6.10823 19.5741 5.02066 19.2615 3.35105 18.3984L3.19747 18.9824C3.06949 19.469 3.45666 19.9403 3.9843 19.9403H8.21735ZM30.7485 19.9403C32.8576 19.5741 33.9452 19.2615 35.6148 18.3984L35.7684 18.9824C35.8964 19.469 35.5092 19.9403 34.9816 19.9403H30.7485ZM10.4123 21.7082C10.5644 21.5636 10.7707 21.4824 10.9858 21.4824H28.157C28.3721 21.4824 28.5784 21.5636 28.7305 21.7082L29.4228 22.3663C29.6782 22.6091 29.4973 23.0243 29.136 23.0243H10.0068C9.64552 23.0243 9.46459 22.6091 9.72005 22.3663L10.4123 21.7082Z" fill="white"/>
</svg>
