<svg width="48" height="48" viewBox="0 0 48 48" fill="none" xmlns="http://www.w3.org/2000/svg">
<g opacity="0.4">
<path fill-rule="evenodd" clip-rule="evenodd" d="M31.1909 12.9057C32.2938 12.8446 33.1383 11.901 33.0772 10.7981C33.0161 9.69525 32.0726 8.85072 30.9697 8.91181C29.0749 9.01677 27.2053 9.79474 25.7573 11.2427C23.6635 13.3365 22.973 16.3022 23.6857 18.9711L10.9081 31.7487C10.1271 32.5298 10.1271 33.7961 10.9081 34.5772L13.7365 37.4056C14.5176 38.1867 15.7839 38.1867 16.565 37.4056L29.3426 24.628C32.0115 25.3407 34.9772 24.6502 37.0711 22.5564C38.519 21.1084 39.2969 19.2388 39.4019 17.344C39.463 16.2412 38.6185 15.2976 37.5156 15.2365C36.4127 15.1754 35.4691 16.0199 35.408 17.1228C35.3554 18.0728 34.9679 19.0026 34.2426 19.7279C32.6805 21.29 30.1479 21.29 28.5858 19.7279C27.0237 18.1658 27.0237 15.6332 28.5858 14.0711C29.3111 13.3458 30.2409 12.9583 31.1909 12.9057Z" fill="white"/>
</g>
</svg>
